<svg width="640" height="160" viewBox="0 0 640 160" fill="none" xmlns="http://www.w3.org/2000/svg" role="img" aria-labelledby="title desc">
  <title id="title">1010monky logo</title>
  <desc id="desc">A 1010monky wordmark with a stylized half monkey face forming the m letter.</desc>
  <defs>
    <filter id="shadow" x="-10%" y="-20%" width="120%" height="150%" color-interpolation-filters="sRGB">
      <feDropShadow dx="5" dy="5" stdDeviation="0" flood-color="#050A0F" flood-opacity="1"/>
      <feDropShadow dx="0" dy="0" stdDeviation="5" flood-color="#8DEBFF" flood-opacity="0.28"/>
    </filter>
    <linearGradient id="wordGradient" x1="0" y1="34" x2="628" y2="123" gradientUnits="userSpaceOnUse">
      <stop offset="0" stop-color="#8DEBFF"/>
      <stop offset="0.52" stop-color="#D9FBFF"/>
      <stop offset="1" stop-color="#7FF2C2"/>
    </linearGradient>
  </defs>

  <rect x="8" y="18" width="624" height="124" rx="34" fill="#123249" fill-opacity="0.18"/>

  <g filter="url(#shadow)">
    <text x="26" y="102"
      fill="url(#wordGradient)"
      stroke="#050A0F"
      stroke-width="5"
      paint-order="stroke fill"
      font-family="IBM Plex Mono, Consolas, monospace"
      font-size="68"
      font-weight="700"
      letter-spacing="-3">1010</text>

    <g transform="translate(198 25)">
      <circle cx="21" cy="63" r="18" fill="#7FF2C2" stroke="#050A0F" stroke-width="6"/>
      <path d="M28 104V57C28 28 48 15 72 15C96 15 116 28 116 57V104H92V67C92 57 87 51 79 51C70 51 66 58 66 72V104H42V72C42 58 38 51 30 51C22 51 17 57 17 67V104H28Z" fill="#9ADFFF" stroke="#050A0F" stroke-width="7" stroke-linejoin="round"/>
      <path d="M42 63C46 49 57 42 72 42C87 42 98 49 102 63C96 75 85 81 72 81C59 81 48 75 42 63Z" fill="#F5FFFF" stroke="#050A0F" stroke-width="5" stroke-linejoin="round"/>
      <circle cx="61" cy="62" r="5" fill="#050A0F"/>
      <circle cx="83" cy="62" r="5" fill="#050A0F"/>
      <path d="M66 72C69 75 75 75 78 72" stroke="#050A0F" stroke-width="4" stroke-linecap="round"/>
      <path d="M109 36C119 39 126 48 126 61C126 74 119 83 109 86" stroke="#7FF2C2" stroke-width="8" stroke-linecap="round"/>
    </g>

    <text x="326" y="102"
      fill="url(#wordGradient)"
      stroke="#050A0F"
      stroke-width="5"
      paint-order="stroke fill"
      font-family="Space Grotesk, Arial, sans-serif"
      font-size="72"
      font-weight="700"
      letter-spacing="-4">onky</text>
  </g>
</svg>
